<svg version="1.1" xmlns="http://www.w3.org/2000/svg" xmlns:xlink="http://www.w3.org/1999/xlink" width="200.000000pt" height="200.000000pt" viewBox="0,0,256,256"><g fill="#ffffff" fill-rule="nonzero" stroke="none" stroke-width="1" stroke-linecap="butt" stroke-linejoin="miter" stroke-miterlimit="10" stroke-dasharray="" stroke-dashoffset="0" font-family="none" font-weight="none" font-size="none" text-anchor="none" style="mix-blend-mode: normal"><g transform="translate(0.01393,0.01035) scale(0.5,0.5)"><g transform="translate(0,512) scale(0.1,-0.1)"><path d="M2436,4994c-89,-21 -174,-74 -247,-152c-55,-58 -109,-147 -369,-606c-168,-296 -309,-545 -315,-552c-7,-10 -194,-45 -574,-110c-650,-109 -674,-116 -794,-233c-99,-95 -137,-188 -137,-330c0,-94 25,-181 76,-268c15,-27 165,-190 334,-363c168,-173 357,-367 418,-431l112,-116l-70,-593c-38,-326 -70,-623 -70,-661c0,-303 212,-499 497,-459c41,5 101,20 132,33c31,12 298,154 594,315l537,293l538,-293c295,-161 562,-302 592,-315c277,-111 551,17 615,288c8,35 15,96 15,135c0,39 -32,338 -70,664l-70,593l118,121c64,67 250,257 412,424c313,321 355,374 392,495c16,55 20,87 16,166c-3,85 -8,106 -35,162c-18,35 -48,83 -68,106c-44,52 -138,115 -211,143c-34,12 -294,59 -671,120c-338,54 -617,100 -618,102c-2,2 -127,251 -279,555c-253,507 -280,557 -335,615c-131,139 -295,193 -465,152zM2594,4709c21,-6 58,-29 83,-52c39,-36 79,-111 342,-643c278,-560 300,-602 327,-608c16,-3 322,-53 681,-111c679,-109 715,-117 765,-172c53,-58 56,-136 9,-217c-14,-25 -226,-251 -471,-502c-245,-251 -446,-462 -448,-468c-1,-6 33,-312 77,-681c56,-476 77,-683 72,-716c-17,-107 -81,-154 -184,-132c-36,8 -240,113 -670,347l-617,337l-613,-334c-336,-183 -627,-339 -646,-345c-125,-43 -212,26 -213,170c0,35 34,351 76,702c42,352 75,645 74,652c-2,6 -203,217 -448,469c-245,251 -453,469 -463,484c-32,48 -49,125 -37,169c12,45 72,105 128,129c19,8 312,61 650,118c338,58 616,106 617,107c1,2 154,271 339,598c361,637 387,675 473,698c51,13 52,13 97,1z"></path><path d="M2453,3430c-95,-10 -161,-33 -232,-81c-127,-85 -199,-217 -217,-400l-7,-69h162h161v33c0,95 65,204 137,228c19,6 65,9 103,7c86,-5 130,-33 166,-105c22,-45 26,-63 22,-122c-7,-130 -76,-189 -237,-200l-86,-6l-3,-127l-3,-128h69c195,0 302,-85 302,-240c0,-36 -5,-82 -11,-103c-24,-87 -127,-157 -230,-157c-135,0 -225,87 -237,227l-5,63h-170h-170l6,-72c14,-156 67,-278 157,-361c108,-100 230,-138 435,-138c194,1 324,46 423,149c107,109 162,246 162,398c0,147 -47,254 -147,340c-33,28 -66,54 -74,56c-10,3 -3,14 21,34c61,51 82,77 114,144c29,61 31,72 30,175c-1,86 -5,122 -21,162c-83,212 -324,325 -620,293z"></path></g></g></g></svg>